{"title":"Anal Bliss For Elated Brunette[truehdporn].mp4","uid":7502233,"size":797995324,"categoryP":"porn","categoryS":"movies","magnet":"?xt=urn:btih:5a8de0e6fd30d168d1785f3ddc665be9d307a2b6&amp;dn=Anal+Bliss+For+Elated+Brunette%5Btruehdporn%5D.mp4&amp;tr=udp%3A%2F%2Ftracker.openbittorrent.com%3A80&amp;tr=udp%3A%2F%2Fopen.demonii.com%3A1337&amp;tr=udp%3A%2F%2Ftracker.coppersurfer.tk%3A6969&amp;tr=udp%3A%2F%2Fexodus.desync.com%3A6969","seeders":0,"leechers":1,"uploader":"hdporn","files":1,"time":1344058478,"description":"Format : MPEG-4\nFormat profile : Base Media\nCodec ID : isom\nFile size : 761 MiB\nDuration : 26mn 57s\nOverall bit rate mode : Variable\nOverall bit rate : 3 947 Kbps\nWriting application : Lavf52.93.0\n\nVideo\nID : 1\nFormat : AVC\nFormat/Info : Advanced Video Codec\nFormat profile : &lt;a class=&quot;__cf_email__&quot; href=&quot;/cdn-cgi/l/email-protection&quot; data-cfemail=&quot;9ed6f7f9f6ded2aab0ae&quot;&gt;[email&amp;#160;protected]&lt;/a&gt;&lt;script cf-hash='f9e31' type=&quot;text/javascript&quot;&gt;\n/* &lt;![CDATA[ */!function(){try{var t=&quot;currentScript&quot;in document?document.currentScript:function(){for(var t=document.getElementsByTagName(&quot;script&quot;),e=t.length;e--;)if(t[e].getAttribute(&quot;cf-hash&quot;))return t[e]}();if(t&amp;&amp;t.previousSibling){var e,r,n,i,c=t.previousSibling,a=c.getAttribute(&quot;data-cfemail&quot;);if(a){for(e=&quot;&quot;,r=parseInt(a.substr(0,2),16),n=2;a.length-n;n+=2)i=parseInt(a.substr(n,2),16)^r,e+=String.fromCharCode(i);e=document.createTextNode(e),c.parentNode.replaceChild(e,c)}}}catch(u){}}();/* ]]&gt; */&lt;/script&gt;\nFormat settings, CABAC : Yes\nFormat settings, ReFrames : 4 frames\nCodec ID : avc1\nCodec ID/Info : Advanced Video Coding\nDuration : 26mn 57s\nBit rate mode : Variable\nBit rate : 3 868 Kbps\nWidth : 1 920 pixels\nHeight : 1 080 pixels\nDisplay aspect ratio : 16:9\nFrame rate mode : Constant\nFrame rate : 25.000 fps\nColor space : YUV\nChroma subsampling : 4:2:0\nBit depth : 8 bits\nScan type : Progressive\nBits/(Pixel*Frame) : 0.075\nStream size : 748 MiB (98%)\nLanguage : Hungarian\n\n\nAudio\nID : 2\nFormat : AAC\nFormat/Info : Advanced Audio Codec\nFormat profile : LC\nCodec ID : 40\nDuration : 26mn 57s\nBit rate mode : Variable\nBit rate : 63.9 Kbps\nChannel(s) : 2 channels\nChannel positions : Front: L R\nSampling rate : 44.1 KHz\nCompression mode : Lossy\nDelay relative to video : -1ms\nStream size : 12.3 MiB (2%)\nLanguage : English\n","torrent":{"xt":"urn:btih:5a8de0e6fd30d168d1785f3ddc665be9d307a2b6","amp;dn":"Anal+Bliss+For+Elated+Brunette%5Btruehdporn%5D.mp4","amp;tr":["udp%3A%2F%2Ftracker.openbittorrent.com%3A80","udp%3A%2F%2Fopen.demonii.com%3A1337","udp%3A%2F%2Ftracker.coppersurfer.tk%3A6969","udp%3A%2F%2Fexodus.desync.com%3A6969"],"infoHash":"5a8de0e6fd30d168d1785f3ddc665be9d307a2b6","infoHashBuffer":{"type":"Buffer","data":[90,141,224,230,253,48,209,104,209,120,95,61,220,102,91,233,211,7,162,182]},"announce":[],"urlList":[]}}